<?xml version="1.0" encoding="UTF-8"?>
<svg id="OBJECTS" xmlns="http://www.w3.org/2000/svg" xmlns:xlink="http://www.w3.org/1999/xlink" viewBox="0 0 164.38 187.33">
  <defs>
    <clipPath id="clippath">
      <path d="m100.54,21.45c-3.7-11.45-9.71-17.74-21.19-17.42-24.63.68-26.99,23.95-20.93,24.35,3.3.22,42.13-6.93,42.13-6.93Z" style="clip-rule: evenodd; fill: none; stroke-width: 0px;"/>
    </clipPath>
  </defs>
  <g id="snowman3">
    <g>
      <path d="m103.21,68.26c.4-.2,31.62-16.14,32.33-16.65.71-.51,3.34-17.3,3.34-17.3,0,0,1.67-.3,1.82,0,.15.3-2.25,16.11-2.25,16.11l24.29-13.83c.89-.51,2.27,1.03,1.34,1.82-.94.78-22.51,12.67-22.21,12.73.3.05,15.58.78,15.58.78,0,0,.45.96-.15,1.52-.61.56-17.61-.56-17.61-.56,0,0-34.89,19.24-35.1,18.53s-1.38-3.15-1.38-3.15Z" style="fill: #331005; fill-rule: evenodd; stroke-width: 0px;"/>
      <path d="m108.7,69.56c9.27-4.71,30.99-16.68,30.99-16.68,0,0,17,1.11,17.61.56.13-.12.21-.25.26-.39l-18.4-.57-30.87,16.25-1.69.89-2.23,1.17c.11.26.19.48.23.62.03.11.89-.26,2.32-.95.52-.26,1.12-.56,1.79-.89Z" style="fill: #1e0801; fill-rule: evenodd; stroke-width: 0px;"/>
      <path d="m140.22,51.67l17.34.61c-.05-.22-.12-.36-.12-.36,0,0-15.28-.73-15.58-.78-.3-.05,21.27-11.94,22.21-12.73.29-.24.36-.55.29-.85l-23.93,13.53-.2.58Z" style="fill: #1e0801; fill-rule: evenodd; stroke-width: 0px;"/>
      <path d="m137.9,51.29l25.32-14.19.37-.49c-.28-.14-.59-.17-.86-.02l-24.29,13.83s2.4-15.81,2.25-16.11c-.04-.09-.22-.13-.44-.13l-2.36,17.11Z" style="fill: #2d0f04; fill-rule: evenodd; stroke-width: 0px;"/>
      <path d="m136.35,51.6l2.91-17.34c-.22.03-.38.06-.38.06,0,0-2.63,16.8-3.34,17.3-.56.4-20.22,10.46-28.61,14.75-.54.27-1.03.53-1.47.75-1.36.69-2.19,1.12-2.26,1.15,0,0,.22.46.49,1.04l2.23-1.21,1.54-.83,28.88-15.66Z" style="fill: #2d0f04; fill-rule: evenodd; stroke-width: 0px;"/>
    </g>
    <g>
      <path d="m54.3,66.76s-23.78-9.98-24.43-10.35c-.65-.37-8.97-4.18-8.97-4.18l-6.33-14.01-1.12.37c-.62.21,6.67,13.49,5.18,12.52L1.27,39.76s-1.59.86-1.21,1.51c.37.65,18.61,12.33,18.61,12.33l-14.18,2.43s.41,1.69.97,1.79c.56.09,14.97-2.66,15.53-2.47.56.19,30.09,14.49,30.56,14.35.47-.14,1.31-.05,1.98-1.19.68-1.14.77-1.75.77-1.75Z" style="fill: #331005; fill-rule: evenodd; stroke-width: 0px;"/>
      <path d="m48.96,67.45c-9.4-4.42-26.69-12.46-27.58-12.66-1.14-.26-14.83,2.24-16.42,2.53.14.26.31.47.5.5.56.09,14.97-2.66,15.53-2.47.45.15,19.78,9.5,27.46,13.02.66.3,1.23.56,1.7.77.83.37,1.33.57,1.39.55.31-.09.8-.08,1.28-.41-.64-.3-1.4-.67-2.27-1.07-.5-.24-1.04-.49-1.6-.75Z" style="fill: #1e0801; fill-rule: evenodd; stroke-width: 0px;"/>
      <path d="m20.76,53.02l29.05,13.04,1.47.66,2.59,1.16c.37-.74.43-1.12.43-1.12,0,0-.95-.4-2.48-1.04-.42-.18-.89-.37-1.39-.58-6.77-2.84-20.08-8.45-20.56-8.73-.65-.37-8.97-4.18-8.97-4.18l-6.33-14.01-.46.15,6.65,14.65Z" style="fill: #2d0f04; fill-rule: evenodd; stroke-width: 0px;"/>
      <path d="m19.77,53.73c-.04-.28-14.96-10.24-19.47-13.24-.24.25-.39.53-.24.79.37.65,18.61,12.33,18.61,12.33l-14.18,2.43s.08.33.22.71c3.46-.62,15.1-2.74,15.05-3.02Z" style="fill: #1e0801; fill-rule: evenodd; stroke-width: 0px;"/>
      <path d="m.86,40.02l17.44,11.46s1.04.46,1.29.03c.21-.35-4.28-9.54-5.97-12.97l-.17.06c-.62.21,6.67,13.49,5.18,12.52L1.27,39.76s-.18.1-.41.25Z" style="fill: #2d0f04; fill-rule: evenodd; stroke-width: 0px;"/>
    </g>
    <path d="m48.99,187.33c9.83,0,17.84-3.57,17.84-7.94s-8.02-7.94-17.84-7.94-17.84,3.57-17.84,7.94,8.02,7.94,17.84,7.94Z" style="fill: #f0f1f3; fill-rule: evenodd; stroke-width: 0px;"/>
    <path d="m111.41,187.33c9.83,0,17.84-3.57,17.84-7.94s-8.02-7.94-17.84-7.94-17.84,3.57-17.84,7.94,8.02,7.94,17.84,7.94Z" style="fill: #f0f1f3; fill-rule: evenodd; stroke-width: 0px;"/>
    <path d="m112.17,95.62c10.63,9.09,17.38,22.6,17.38,37.68,0,27.37-22.19,49.55-49.55,49.55s-49.55-22.19-49.55-49.55c0-15.08,6.74-28.59,17.38-37.68-1.04-3.26-1.61-6.72-1.61-10.33,0-18.66,15.13-33.79,33.79-33.79s33.79,15.13,33.79,33.79c0,3.6-.57,7.07-1.61,10.33Z" style="fill: #f0f1f3; fill-rule: evenodd; stroke-width: 0px;"/>
    <path d="m109.43,94.53c9.73,9.09,15.89,22.6,15.89,37.68,0,27.37-20.29,49.55-45.33,49.55s-45.33-22.19-45.33-49.55c0-15.08,6.17-28.59,15.89-37.68-.95-3.26-1.47-6.72-1.47-10.33,0-18.66,13.84-33.79,30.9-33.79s30.9,15.13,30.9,33.79c0,3.6-.52,7.07-1.47,10.33Z" style="fill: #fff; fill-rule: evenodd; stroke-width: 0px;"/>
    <path d="m78.37,58.63c-1.39.68-2.25,32.15-2.02,33.23.23,1.08-6.24,1.74-9.38,1.03,1.52-11.15,1.68-24.14,5.71-34.68,1.9.14,3.79.28,5.69.42Z" style="fill: #d6770b; fill-rule: evenodd; stroke-width: 0px;"/>
    <circle cx="80.56" cy="36.52" r="23.07" style="fill: #fff; stroke-width: 0px;"/>
    <path d="m82.16,32.62c5.69.63,17.28.69,19.84,1.12.38.06.69.17.72.26.04.13-.08.32-.56.64-.97.64-15.44,5.52-17.87,6.11-3.88.93-4.93-7.61-2.13-8.12Z" style="fill: #e75b05; fill-rule: evenodd; stroke-width: 0px;"/>
    <path d="m76.2,33.28c1.3,0,2.35-1.08,2.35-2.4s-1.06-2.4-2.35-2.4-2.35,1.08-2.35,2.4,1.06,2.4,2.35,2.4Z" style="fill: #25201e; fill-rule: evenodd; stroke-width: 0px;"/>
    <path d="m80.62,36.53c.24,2.33,1.52,4.73,3.67,4.21,1.79-.43,10.08-3.18,14.73-4.86,1.68-.61,2.89-1.08,3.14-1.25.3-.2.46-.35.53-.46-.39.08-.84.18-1.3.28-.54.12-1.52.43-2.54.75-1.44.45-2.95.91-3.41.86-.79-.09-.97-1.63-.97-2.2s-.29,2.45-.26,2.78c.02.32-3.08,1.17-3.63.86-.51-.28-1.13-2.63-1.15-3.25-.09.65-.54,3.39-.5,3.94.04.64-2.09,1.05-2.83.31-.7-.7-1.32-3.78-1.36-4.45-.04.81-.34,5.64-.24,5.8.11.18-.79-.01-2-1.1-1.21-1.09-1.87-2.23-1.87-2.23Z" style="fill: #d14e17; fill-rule: evenodd; stroke-width: 0px;"/>
    <path d="m76.52,32.62c1.07,0,1.95-.89,1.95-1.99s-.88-1.99-1.95-1.99-1.95.89-1.95,1.99.88,1.99,1.95,1.99Z" style="fill: #312c2a; fill-rule: evenodd; stroke-width: 0px;"/>
    <path d="m89.66,31.56c1.3,0,2.35-1.08,2.35-2.4s-1.06-2.4-2.35-2.4-2.35,1.08-2.35,2.4,1.06,2.4,2.35,2.4Z" style="fill: #25201e; fill-rule: evenodd; stroke-width: 0px;"/>
    <path d="m89.97,30.9c1.08,0,1.95-.89,1.95-1.99s-.88-1.99-1.95-1.99-1.95.89-1.95,1.99.88,1.99,1.95,1.99Z" style="fill: #312c2a; fill-rule: evenodd; stroke-width: 0px;"/>
    <path d="m94.51,46.04c.65,0,1.18-.54,1.18-1.2s-.53-1.2-1.18-1.2-1.18.54-1.18,1.2.53,1.2,1.18,1.2Z" style="fill: #25201e; fill-rule: evenodd; stroke-width: 0px;"/>
    <path d="m94.67,45.71c.54,0,.98-.45.98-.99s-.44-.99-.98-.99-.98.45-.98.99.44.99.98.99Z" style="fill: #312c2a; fill-rule: evenodd; stroke-width: 0px;"/>
    <path d="m89.5,48.42c.65,0,1.18-.54,1.18-1.2s-.53-1.2-1.18-1.2-1.18.54-1.18,1.2.53,1.2,1.18,1.2Z" style="fill: #25201e; fill-rule: evenodd; stroke-width: 0px;"/>
    <path d="m89.66,48.09c.54,0,.98-.45.98-.99s-.44-.99-.98-.99-.98.45-.98.99.44.99.98.99Z" style="fill: #312c2a; fill-rule: evenodd; stroke-width: 0px;"/>
    <path d="m83.84,48.86c.65,0,1.18-.54,1.18-1.2s-.53-1.2-1.18-1.2-1.18.54-1.18,1.2.53,1.2,1.18,1.2Z" style="fill: #25201e; fill-rule: evenodd; stroke-width: 0px;"/>
    <path d="m84,48.53c.54,0,.98-.45.98-1s-.44-.99-.98-.99-.98.45-.98.99.44,1,.98,1Z" style="fill: #312c2a; fill-rule: evenodd; stroke-width: 0px;"/>
    <path d="m77.4,48.37c.65,0,1.18-.54,1.18-1.2s-.53-1.2-1.18-1.2-1.18.54-1.18,1.2.53,1.2,1.18,1.2Z" style="fill: #25201e; fill-rule: evenodd; stroke-width: 0px;"/>
    <path d="m77.55,48.04c.54,0,.98-.45.98-.99s-.44-.99-.98-.99-.98.45-.98.99.44.99.98.99Z" style="fill: #312c2a; fill-rule: evenodd; stroke-width: 0px;"/>
    <path d="m71.69,45.77c.65,0,1.18-.54,1.18-1.2s-.53-1.2-1.18-1.2-1.18.54-1.18,1.2.53,1.2,1.18,1.2Z" style="fill: #25201e; fill-rule: evenodd; stroke-width: 0px;"/>
    <path d="m71.85,45.43c.54,0,.98-.45.98-.99s-.44-.99-.98-.99-.98.45-.98.99.44.99.98.99Z" style="fill: #312c2a; fill-rule: evenodd; stroke-width: 0px;"/>
    <path d="m96.9,52.8l5.37,7.09c-13.68,5.48-28.52,4.61-46.16,1.52l7.05-9.75c10.51,2.86,22.82,1.01,33.74,1.15Z" style="fill: #ef8200; fill-rule: evenodd; stroke-width: 0px;"/>
    <path d="m78.3,53.31c-4.77,10.27-7.2,41.56-7.32,41.48-.69-.53-10.59-.91-10.59-.91,1.84-11.24,3.24-24.36,9.97-41.05l7.94.49Z" style="fill: #f29a3f; fill-rule: evenodd; stroke-width: 0px;"/>
    <path d="m70,0c-2.15.09-3.82,1.75-3.73,3.7.08,1.95,1.89,3.45,4.04,3.36,2.15-.09,3.82-1.75,3.73-3.7-.09-1.95-1.89-3.45-4.04-3.36Z" style="fill: #fff; fill-rule: evenodd; stroke-width: 0px;"/>
    <path d="m100.54,21.45c-3.7-11.45-9.71-17.74-21.19-17.42-24.63.68-26.99,23.95-20.93,24.35,3.3.22,42.13-6.93,42.13-6.93Z" style="fill: #ef8200; fill-rule: evenodd; stroke-width: 0px;"/>
    <g style="clip-path: url(#clippath);">
      <g>
        <path d="m95.42,17.42c-.09-.37-.98-1.77-2.88-3.62-1.21-1.19-2.83-2.55-4.89-3.93-5.32-3.56-15.25-5.92-15.28-5.93l.14-.59s10.07,2.39,15.48,6.01c2.09,1.4,3.74,2.79,4.97,4,1.99,1.95,2.95,3.49,3.05,3.92l-.6.14Z" style="fill: #de7703; fill-rule: evenodd; stroke-width: 0px;"/>
        <path d="m84.32,18.76c-.07-.35-1.35-2.13-3.02-4.24-1.4-1.76-3.07-3.73-4.54-5.23-3.22-3.3-5.9-4.91-5.91-4.91l.32-.52s2.75,1.65,6.03,5.01c1.48,1.52,3.17,3.5,4.58,5.27,1.72,2.17,3.05,4.06,3.14,4.49l-.6.13Z" style="fill: #de7703; fill-rule: evenodd; stroke-width: 0px;"/>
        <path d="m71.01,4.21c-.9,2.34-1.45,5.31-1.61,8.31-.16,2.98.06,5.97.71,8.35l-.59.16c-.66-2.45-.89-5.5-.73-8.54.16-3.05.73-6.1,1.65-8.49l.57.22Z" style="fill: #de7703; fill-rule: evenodd; stroke-width: 0px;"/>
        <path d="m69.5,4.94c-2.77,2.11-4.77,4.81-6.32,7.8-1.56,3-2.66,6.29-3.63,9.55l-.59-.17c.98-3.28,2.09-6.6,3.67-9.65,1.59-3.06,3.65-5.84,6.5-8.01l.37.49Z" style="fill: #de7703; fill-rule: evenodd; stroke-width: 0px;"/>
      </g>
    </g>
    <path d="m101.62,25.27c4.28-3.13-.05-8.33-1.68-9.55-6.28-4.7-42.98,5.12-42.98,5.12-4.67,1.61-4.24,12.44.5,10.88,25.53-8.41,43.44-5.93,44.16-6.45Z" style="fill: #e1dfde; fill-rule: evenodd; stroke-width: 0px;"/>
    <path d="m53.69,27.66c.17,2.63,1.45,4.83,3.77,4.06.19-.06.39-.13.58-.19,22.36-7.26,38.77-6.16,42.7-6.18.5,0,.8-.02.88-.08,1.3-.95,1.8-2.09,1.83-3.25-.7.57-1.42,1.11-2.01,1.36-.36.15-1.01.14-1.92.04-1.38-.15-3.39-.48-6-.68-3.55-.27-8.22-.31-13.98.69-7.98,1.39-12.94,3.33-16.5,4.47-1.65.53-3,.88-4.22.94-.37.02-.73,0-1.08-.04-1.81-.23-3.12-.66-4.04-1.12Z" style="fill: #cac4c6; fill-rule: evenodd; stroke-width: 0px;"/>
  </g>
</svg>